<svg width="84" height="84" viewBox="0 0 84 84" fill="none" xmlns="http://www.w3.org/2000/svg">
<g id="Group 2">
<circle id="Ellipse 3" cx="42" cy="42" r="42" fill="#FC003C"/>
<g id="contact_support">
<mask id="mask0_1_10776" style="mask-type:alpha" maskUnits="userSpaceOnUse" x="14" y="14" width="55" height="55">
<rect id="Bounding box" x="14" y="14" width="55" height="55" fill="#D9D9D9"/>
</mask>
<g mask="url(#mask0_1_10776)">
<path id="contact_support_2" d="M41.5 64.4167L40.9271 57.5417H40.3542C34.9306 57.5417 30.3281 55.6511 26.5469 51.8698C22.7656 48.0886 20.875 43.4862 20.875 38.0625C20.875 32.6389 22.7656 28.0365 26.5469 24.2552C30.3281 20.474 34.9306 18.5834 40.3542 18.5834C43.066 18.5834 45.5964 19.0895 47.9453 20.1016C50.2943 21.1138 52.3568 22.5079 54.1328 24.2839C55.9089 26.0599 57.3029 28.1224 58.3151 30.4714C59.3273 32.8204 59.8333 35.3507 59.8333 38.0625C59.8333 40.9271 59.3655 43.6771 58.4297 46.3125C57.4939 48.948 56.2144 51.3924 54.5911 53.6459C52.9679 55.8993 51.0391 57.9427 48.8047 59.7761C46.5703 61.6094 44.1354 63.1563 41.5 64.4167ZM46.0833 56.0521C48.7951 53.7605 51.0009 51.0773 52.7005 48.0026C54.4002 44.928 55.25 41.6146 55.25 38.0625C55.25 33.8993 53.8082 30.3759 50.9245 27.4922C48.0408 24.6085 44.5174 23.1667 40.3542 23.1667C36.191 23.1667 32.6675 24.6085 29.7839 27.4922C26.9002 30.3759 25.4583 33.8993 25.4583 38.0625C25.4583 42.2257 26.9002 45.7492 29.7839 48.6329C32.6675 51.5165 36.191 52.9584 40.3542 52.9584H46.0833V56.0521ZM40.2969 50.6094C40.9462 50.6094 41.5 50.3802 41.9583 49.9219C42.4167 49.4636 42.6458 48.9098 42.6458 48.2605C42.6458 47.6111 42.4167 47.0573 41.9583 46.599C41.5 46.1407 40.9462 45.9115 40.2969 45.9115C39.6476 45.9115 39.0937 46.1407 38.6354 46.599C38.1771 47.0573 37.9479 47.6111 37.9479 48.2605C37.9479 48.9098 38.1771 49.4636 38.6354 49.9219C39.0937 50.3802 39.6476 50.6094 40.2969 50.6094ZM38.6354 43.3334H42.0729C42.0729 42.1875 42.1875 41.3855 42.4167 40.9271C42.6458 40.4688 43.3715 39.6285 44.5938 38.4063C45.2812 37.7188 45.8542 36.974 46.3125 36.1719C46.7708 35.3698 47 34.5105 47 33.5938C47 31.6459 46.3411 30.1849 45.0234 29.211C43.7057 28.237 42.1493 27.75 40.3542 27.75C38.6736 27.75 37.2604 28.2179 36.1146 29.1537C34.9687 30.0894 34.1667 31.2257 33.7083 32.5625L36.9167 33.823C37.1076 33.1737 37.4705 32.5339 38.0052 31.9037C38.5399 31.2735 39.3229 30.9584 40.3542 30.9584C41.3854 30.9584 42.1589 31.2448 42.6745 31.8177C43.1901 32.3907 43.4479 33.0209 43.4479 33.7084C43.4479 34.3577 43.2569 34.9401 42.875 35.4558C42.4931 35.9714 42.0347 36.4966 41.5 37.0313C40.1632 38.1771 39.3516 39.0842 39.0651 39.7526C38.7786 40.421 38.6354 41.6146 38.6354 43.3334Z" fill="white"/>
</g>
</g>
</g>
</svg>
